<mxfile host="app.diagrams.net" agent="Mozilla/5.0 (Windows NT 10.0; Win64; x64) AppleWebKit/537.36 (KHTML, like Gecko) Chrome/133.0.0.0 Safari/537.36 OPR/118.0.0.0" version="27.0.9">
  <diagram name="Page-1" id="MBI-nEpmHFs3LHpGqPgs">
    <mxGraphModel dx="8307" dy="2293" grid="1" gridSize="10" guides="1" tooltips="1" connect="1" arrows="1" fold="1" page="1" pageScale="1" pageWidth="1200" pageHeight="1600" math="0" shadow="0">
      <root>
        <mxCell id="0" />
        <mxCell id="1" parent="0" />
        <mxCell id="IJogBwM3K7kCsomVMxnr-1" value="&lt;span style=&quot;font-size: 40px;&quot;&gt;TileSet&lt;/span&gt;" style="text;html=1;align=center;verticalAlign=middle;whiteSpace=wrap;rounded=0;" vertex="1" parent="1">
          <mxGeometry x="-680" y="240" width="140" height="80" as="geometry" />
        </mxCell>
        <mxCell id="IJogBwM3K7kCsomVMxnr-2" value="" style="endArrow=classic;html=1;rounded=0;exitX=1;exitY=0.5;exitDx=0;exitDy=0;entryX=0;entryY=0.5;entryDx=0;entryDy=0;" edge="1" parent="1" source="IJogBwM3K7kCsomVMxnr-1" target="IJogBwM3K7kCsomVMxnr-3">
          <mxGeometry width="50" height="50" relative="1" as="geometry">
            <mxPoint x="-530" y="280" as="sourcePoint" />
            <mxPoint x="-360" y="280" as="targetPoint" />
          </mxGeometry>
        </mxCell>
        <mxCell id="IJogBwM3K7kCsomVMxnr-3" value="&lt;span style=&quot;font-size: 40px;&quot;&gt;Props/Decorations&lt;/span&gt;" style="text;html=1;align=center;verticalAlign=middle;whiteSpace=wrap;rounded=0;" vertex="1" parent="1">
          <mxGeometry x="-360" y="240" width="350" height="80" as="geometry" />
        </mxCell>
        <mxCell id="IJogBwM3K7kCsomVMxnr-4" value="" style="endArrow=classic;html=1;rounded=0;exitX=0;exitY=1;exitDx=0;exitDy=0;entryX=0;entryY=0.5;entryDx=0;entryDy=0;" edge="1" parent="1" source="IJogBwM3K7kCsomVMxnr-3" target="IJogBwM3K7kCsomVMxnr-5">
          <mxGeometry width="50" height="50" relative="1" as="geometry">
            <mxPoint x="-260" y="420" as="sourcePoint" />
            <mxPoint x="-290" y="370" as="targetPoint" />
            <Array as="points">
              <mxPoint x="-360" y="370" />
            </Array>
          </mxGeometry>
        </mxCell>
        <mxCell id="IJogBwM3K7kCsomVMxnr-5" value="&lt;font style=&quot;font-size: 20px;&quot;&gt;Un tank T72/T80&lt;/font&gt;" style="text;html=1;align=center;verticalAlign=middle;whiteSpace=wrap;rounded=0;" vertex="1" parent="1">
          <mxGeometry x="-300" y="350" width="180" height="40" as="geometry" />
        </mxCell>
        <mxCell id="IJogBwM3K7kCsomVMxnr-6" value="" style="endArrow=classic;html=1;rounded=0;entryX=0;entryY=0.5;entryDx=0;entryDy=0;" edge="1" parent="1" target="IJogBwM3K7kCsomVMxnr-8">
          <mxGeometry width="50" height="50" relative="1" as="geometry">
            <mxPoint x="-360" y="370" as="sourcePoint" />
            <mxPoint x="-290" y="430" as="targetPoint" />
            <Array as="points">
              <mxPoint x="-360" y="430" />
            </Array>
          </mxGeometry>
        </mxCell>
        <mxCell id="IJogBwM3K7kCsomVMxnr-7" value="&lt;span style=&quot;font-size: 20px;&quot;&gt;Grillage/&lt;/span&gt;&lt;span style=&quot;color: rgba(0, 0, 0, 0); font-family: monospace; font-size: 0px; text-align: start; text-wrap-mode: nowrap;&quot;&gt;%3CmxGraphModel%3E%3Croot%3E%3CmxCell%20id%3D%220%22%2F%3E%3CmxCell%20id%3D%221%22%20parent%3D%220%22%2F%3E%3CmxCell%20id%3D%222%22%20value%3D%22%26lt%3Bfont%20style%3D%26quot%3Bfont-size%3A%2020px%3B%26quot%3B%26gt%3BUn%20tank%20T72%2FT80%26lt%3B%2Ffont%26gt%3B%22%20style%3D%22text%3Bhtml%3D1%3Balign%3Dcenter%3BverticalAlign%3Dmiddle%3BwhiteSpace%3Dwrap%3Brounded%3D0%3B%22%20vertex%3D%221%22%20parent%3D%221%22%3E%3CmxGeometry%20x%3D%22-810%22%20y%3D%22200%22%20width%3D%22180%22%20height%3D%2240%22%20as%3D%22geometry%22%2F%3E%3C%2FmxCell%3E%3C%2Froot%3E%3C%2FmxGraphModel%3E&lt;/span&gt;&lt;span style=&quot;font-size: 20px;&quot;&gt;Barbelé&lt;/span&gt;" style="text;html=1;align=center;verticalAlign=middle;whiteSpace=wrap;rounded=0;" vertex="1" parent="1">
          <mxGeometry x="-300" y="380" width="180" height="40" as="geometry" />
        </mxCell>
        <mxCell id="IJogBwM3K7kCsomVMxnr-8" value="&lt;span style=&quot;font-size: 20px;&quot;&gt;Poteaux éclairages (en mauvaise états)&lt;/span&gt;" style="text;html=1;align=center;verticalAlign=middle;whiteSpace=wrap;rounded=0;" vertex="1" parent="1">
          <mxGeometry x="-300" y="410" width="390" height="40" as="geometry" />
        </mxCell>
        <mxCell id="IJogBwM3K7kCsomVMxnr-9" value="" style="endArrow=classic;html=1;rounded=0;entryX=0;entryY=0.5;entryDx=0;entryDy=0;" edge="1" parent="1" target="IJogBwM3K7kCsomVMxnr-7">
          <mxGeometry width="50" height="50" relative="1" as="geometry">
            <mxPoint x="-360" y="400" as="sourcePoint" />
            <mxPoint x="-210" y="360" as="targetPoint" />
          </mxGeometry>
        </mxCell>
        <mxCell id="IJogBwM3K7kCsomVMxnr-10" value="" style="endArrow=classic;html=1;rounded=0;entryX=0;entryY=0.5;entryDx=0;entryDy=0;" edge="1" parent="1" target="IJogBwM3K7kCsomVMxnr-11">
          <mxGeometry width="50" height="50" relative="1" as="geometry">
            <mxPoint x="-360" y="430" as="sourcePoint" />
            <mxPoint x="-310" y="460" as="targetPoint" />
            <Array as="points">
              <mxPoint x="-360" y="460" />
            </Array>
          </mxGeometry>
        </mxCell>
        <mxCell id="IJogBwM3K7kCsomVMxnr-11" value="&lt;span style=&quot;font-size: 20px;&quot;&gt;Des cadavres&lt;/span&gt;" style="text;html=1;align=center;verticalAlign=middle;whiteSpace=wrap;rounded=0;" vertex="1" parent="1">
          <mxGeometry x="-300" y="440" width="160" height="40" as="geometry" />
        </mxCell>
        <mxCell id="IJogBwM3K7kCsomVMxnr-12" value="" style="endArrow=classic;html=1;rounded=0;entryX=0;entryY=0.5;entryDx=0;entryDy=0;" edge="1" parent="1" target="IJogBwM3K7kCsomVMxnr-13">
          <mxGeometry width="50" height="50" relative="1" as="geometry">
            <mxPoint x="-360" y="460" as="sourcePoint" />
            <mxPoint x="-300" y="490" as="targetPoint" />
            <Array as="points">
              <mxPoint x="-360" y="490" />
            </Array>
          </mxGeometry>
        </mxCell>
        <mxCell id="IJogBwM3K7kCsomVMxnr-13" value="&lt;span style=&quot;font-size: 20px;&quot;&gt;Des Feuillages&lt;/span&gt;" style="text;html=1;align=center;verticalAlign=middle;whiteSpace=wrap;rounded=0;" vertex="1" parent="1">
          <mxGeometry x="-300" y="470" width="170" height="40" as="geometry" />
        </mxCell>
        <mxCell id="IJogBwM3K7kCsomVMxnr-14" value="" style="endArrow=classic;html=1;rounded=0;exitX=1;exitY=0.5;exitDx=0;exitDy=0;entryX=0;entryY=0.5;entryDx=0;entryDy=0;" edge="1" parent="1" source="IJogBwM3K7kCsomVMxnr-3" target="IJogBwM3K7kCsomVMxnr-15">
          <mxGeometry width="50" height="50" relative="1" as="geometry">
            <mxPoint x="-260" y="410" as="sourcePoint" />
            <mxPoint x="120" y="280" as="targetPoint" />
          </mxGeometry>
        </mxCell>
        <mxCell id="IJogBwM3K7kCsomVMxnr-15" value="&lt;span style=&quot;font-size: 40px;&quot;&gt;Animations/particules&lt;/span&gt;" style="text;html=1;align=center;verticalAlign=middle;whiteSpace=wrap;rounded=0;" vertex="1" parent="1">
          <mxGeometry x="120" y="240" width="390" height="80" as="geometry" />
        </mxCell>
        <mxCell id="IJogBwM3K7kCsomVMxnr-16" value="" style="endArrow=classic;html=1;rounded=0;exitX=0;exitY=1;exitDx=0;exitDy=0;entryX=0;entryY=0.5;entryDx=0;entryDy=0;" edge="1" parent="1" source="IJogBwM3K7kCsomVMxnr-15" target="IJogBwM3K7kCsomVMxnr-17">
          <mxGeometry width="50" height="50" relative="1" as="geometry">
            <mxPoint x="-260" y="410" as="sourcePoint" />
            <mxPoint x="180" y="370" as="targetPoint" />
            <Array as="points">
              <mxPoint x="120" y="370" />
            </Array>
          </mxGeometry>
        </mxCell>
        <mxCell id="IJogBwM3K7kCsomVMxnr-17" value="&lt;span style=&quot;font-size: 20px;&quot;&gt;Arcs électriques&lt;/span&gt;" style="text;html=1;align=center;verticalAlign=middle;whiteSpace=wrap;rounded=0;" vertex="1" parent="1">
          <mxGeometry x="180" y="350" width="180" height="40" as="geometry" />
        </mxCell>
        <mxCell id="IJogBwM3K7kCsomVMxnr-18" value="" style="endArrow=classic;html=1;rounded=0;entryX=0;entryY=0.5;entryDx=0;entryDy=0;" edge="1" parent="1" target="IJogBwM3K7kCsomVMxnr-19">
          <mxGeometry width="50" height="50" relative="1" as="geometry">
            <mxPoint x="120" y="370" as="sourcePoint" />
            <mxPoint x="180" y="410" as="targetPoint" />
            <Array as="points">
              <mxPoint x="120" y="410" />
            </Array>
          </mxGeometry>
        </mxCell>
        <mxCell id="IJogBwM3K7kCsomVMxnr-19" value="&lt;span style=&quot;font-size: 20px;&quot;&gt;Feux/sendres&lt;/span&gt;" style="text;html=1;align=center;verticalAlign=middle;whiteSpace=wrap;rounded=0;" vertex="1" parent="1">
          <mxGeometry x="180" y="390" width="180" height="40" as="geometry" />
        </mxCell>
        <mxCell id="IJogBwM3K7kCsomVMxnr-20" value="" style="endArrow=classic;html=1;rounded=0;entryX=1;entryY=0.5;entryDx=0;entryDy=0;" edge="1" parent="1" target="IJogBwM3K7kCsomVMxnr-13">
          <mxGeometry width="50" height="50" relative="1" as="geometry">
            <mxPoint x="120" y="410" as="sourcePoint" />
            <mxPoint x="180" y="460" as="targetPoint" />
            <Array as="points">
              <mxPoint x="120" y="490" />
            </Array>
          </mxGeometry>
        </mxCell>
        <mxCell id="IJogBwM3K7kCsomVMxnr-21" value="" style="endArrow=none;dashed=1;html=1;dashPattern=1 3;strokeWidth=2;rounded=0;entryX=0;entryY=0.5;entryDx=0;entryDy=0;exitX=1;exitY=0.5;exitDx=0;exitDy=0;" edge="1" parent="1" source="IJogBwM3K7kCsomVMxnr-5" target="IJogBwM3K7kCsomVMxnr-19">
          <mxGeometry width="50" height="50" relative="1" as="geometry">
            <mxPoint x="120" y="480" as="sourcePoint" />
            <mxPoint x="170" y="430" as="targetPoint" />
            <Array as="points">
              <mxPoint x="120" y="410" />
            </Array>
          </mxGeometry>
        </mxCell>
        <mxCell id="IJogBwM3K7kCsomVMxnr-22" value="" style="endArrow=none;dashed=1;html=1;dashPattern=1 3;strokeWidth=2;rounded=0;entryX=0;entryY=0.5;entryDx=0;entryDy=0;exitX=1;exitY=0.5;exitDx=0;exitDy=0;" edge="1" parent="1" source="IJogBwM3K7kCsomVMxnr-8" target="IJogBwM3K7kCsomVMxnr-17">
          <mxGeometry width="50" height="50" relative="1" as="geometry">
            <mxPoint x="100" y="420" as="sourcePoint" />
            <mxPoint x="400" y="460" as="targetPoint" />
            <Array as="points">
              <mxPoint x="120" y="370" />
            </Array>
          </mxGeometry>
        </mxCell>
        <mxCell id="IJogBwM3K7kCsomVMxnr-23" value="&lt;span style=&quot;font-size: 40px;&quot;&gt;Moteur Physique&lt;/span&gt;" style="text;html=1;align=center;verticalAlign=middle;whiteSpace=wrap;rounded=0;" vertex="1" parent="1">
          <mxGeometry x="-390" y="600" width="320" height="80" as="geometry" />
        </mxCell>
        <mxCell id="IJogBwM3K7kCsomVMxnr-24" value="" style="endArrow=classic;html=1;rounded=0;entryX=0;entryY=0.5;entryDx=0;entryDy=0;" edge="1" parent="1" target="IJogBwM3K7kCsomVMxnr-25">
          <mxGeometry width="50" height="50" relative="1" as="geometry">
            <mxPoint x="-390" y="750" as="sourcePoint" />
            <mxPoint x="70" y="560" as="targetPoint" />
            <Array as="points">
              <mxPoint x="-390" y="800" />
            </Array>
          </mxGeometry>
        </mxCell>
        <mxCell id="IJogBwM3K7kCsomVMxnr-25" value="&lt;font style=&quot;font-size: 20px;&quot;&gt;Ragdoll&lt;/font&gt;" style="text;html=1;align=center;verticalAlign=middle;whiteSpace=wrap;rounded=0;" vertex="1" parent="1">
          <mxGeometry x="-350" y="780" width="80" height="40" as="geometry" />
        </mxCell>
        <mxCell id="IJogBwM3K7kCsomVMxnr-26" value="&lt;font style=&quot;font-size: 20px;&quot;&gt;Démembrement&lt;/font&gt;" style="text;html=1;align=center;verticalAlign=middle;whiteSpace=wrap;rounded=0;" vertex="1" parent="1">
          <mxGeometry x="-350" y="750" width="160" height="30" as="geometry" />
        </mxCell>
        <mxCell id="IJogBwM3K7kCsomVMxnr-27" value="" style="endArrow=classic;html=1;rounded=0;entryX=0;entryY=0.5;entryDx=0;entryDy=0;" edge="1" parent="1" target="IJogBwM3K7kCsomVMxnr-26">
          <mxGeometry width="50" height="50" relative="1" as="geometry">
            <mxPoint x="-390" y="730" as="sourcePoint" />
            <mxPoint x="130" y="630" as="targetPoint" />
            <Array as="points">
              <mxPoint x="-390" y="765" />
            </Array>
          </mxGeometry>
        </mxCell>
        <mxCell id="IJogBwM3K7kCsomVMxnr-28" value="" style="endArrow=classic;html=1;rounded=0;exitX=0;exitY=1;exitDx=0;exitDy=0;entryX=0;entryY=0.5;entryDx=0;entryDy=0;" edge="1" parent="1" source="IJogBwM3K7kCsomVMxnr-23" target="IJogBwM3K7kCsomVMxnr-29">
          <mxGeometry width="50" height="50" relative="1" as="geometry">
            <mxPoint x="-50" y="810" as="sourcePoint" />
            <mxPoint x="80" y="660" as="targetPoint" />
            <Array as="points">
              <mxPoint x="-390" y="730" />
            </Array>
          </mxGeometry>
        </mxCell>
        <mxCell id="IJogBwM3K7kCsomVMxnr-29" value="&lt;font style=&quot;font-size: 20px;&quot;&gt;Chutes des objets et balistiques des balles&lt;/font&gt;" style="text;html=1;align=center;verticalAlign=middle;whiteSpace=wrap;rounded=0;" vertex="1" parent="1">
          <mxGeometry x="-350" y="710" width="400" height="40" as="geometry" />
        </mxCell>
        <mxCell id="IJogBwM3K7kCsomVMxnr-30" value="&lt;span style=&quot;font-size: 40px;&quot;&gt;Items&amp;nbsp;&lt;/span&gt;" style="text;html=1;align=center;verticalAlign=middle;whiteSpace=wrap;rounded=0;" vertex="1" parent="1">
          <mxGeometry x="-670" y="600" width="120" height="80" as="geometry" />
        </mxCell>
        <mxCell id="IJogBwM3K7kCsomVMxnr-31" value="" style="endArrow=classic;html=1;rounded=0;exitX=1;exitY=0.5;exitDx=0;exitDy=0;entryX=0;entryY=0.5;entryDx=0;entryDy=0;" edge="1" parent="1" source="IJogBwM3K7kCsomVMxnr-30" target="IJogBwM3K7kCsomVMxnr-23">
          <mxGeometry width="50" height="50" relative="1" as="geometry">
            <mxPoint x="-340" y="840" as="sourcePoint" />
            <mxPoint x="-290" y="790" as="targetPoint" />
          </mxGeometry>
        </mxCell>
        <mxCell id="IJogBwM3K7kCsomVMxnr-32" value="&lt;span style=&quot;font-size: 40px;&quot;&gt;Patch List:&lt;/span&gt;" style="text;html=1;align=center;verticalAlign=middle;whiteSpace=wrap;rounded=0;" vertex="1" parent="1">
          <mxGeometry x="-2390" width="210" height="80" as="geometry" />
        </mxCell>
        <mxCell id="IJogBwM3K7kCsomVMxnr-33" value="" style="swimlane;startSize=0;" vertex="1" parent="1">
          <mxGeometry x="-2380" y="70" width="1320" height="1510" as="geometry" />
        </mxCell>
        <mxCell id="IJogBwM3K7kCsomVMxnr-34" value="&lt;span style=&quot;font-size: 40px;&quot;&gt;Class ennemi mère abstraite&lt;/span&gt;" style="text;html=1;align=center;verticalAlign=middle;whiteSpace=wrap;rounded=0;" vertex="1" parent="1">
          <mxGeometry x="-690" y="900" width="470" height="80" as="geometry" />
        </mxCell>
        <mxCell id="IJogBwM3K7kCsomVMxnr-35" value="" style="endArrow=classic;html=1;rounded=0;entryX=0;entryY=0.5;entryDx=0;entryDy=0;exitX=1;exitY=0.5;exitDx=0;exitDy=0;" edge="1" parent="1" source="IJogBwM3K7kCsomVMxnr-38" target="IJogBwM3K7kCsomVMxnr-36">
          <mxGeometry width="50" height="50" relative="1" as="geometry">
            <mxPoint x="90" y="1040" as="sourcePoint" />
            <mxPoint x="20" y="1140" as="targetPoint" />
            <Array as="points">
              <mxPoint x="160" y="1040" />
            </Array>
          </mxGeometry>
        </mxCell>
        <mxCell id="IJogBwM3K7kCsomVMxnr-36" value="&lt;span&gt;Militaire (&lt;/span&gt;&lt;font&gt;neutre/allié/ennemi)&lt;/font&gt;&lt;span&gt;&amp;nbsp;&lt;/span&gt;" style="text;html=1;align=center;verticalAlign=middle;whiteSpace=wrap;rounded=0;fontSize=20;" vertex="1" parent="1">
          <mxGeometry x="210" y="1015" width="285" height="50" as="geometry" />
        </mxCell>
        <mxCell id="IJogBwM3K7kCsomVMxnr-37" value="" style="endArrow=classic;html=1;rounded=0;exitX=0;exitY=1;exitDx=0;exitDy=0;entryX=0;entryY=0.5;entryDx=0;entryDy=0;" edge="1" parent="1" source="IJogBwM3K7kCsomVMxnr-48" target="IJogBwM3K7kCsomVMxnr-38">
          <mxGeometry width="50" height="50" relative="1" as="geometry">
            <mxPoint x="-110" y="1180" as="sourcePoint" />
            <mxPoint x="-50" y="1040" as="targetPoint" />
            <Array as="points">
              <mxPoint x="-130" y="1040" />
            </Array>
          </mxGeometry>
        </mxCell>
        <mxCell id="IJogBwM3K7kCsomVMxnr-38" value="&lt;span&gt;Humain&lt;/span&gt;" style="text;html=1;align=center;verticalAlign=middle;whiteSpace=wrap;rounded=0;fontSize=20;" vertex="1" parent="1">
          <mxGeometry x="-20" y="1020" width="90" height="40" as="geometry" />
        </mxCell>
        <mxCell id="IJogBwM3K7kCsomVMxnr-39" value="&lt;span&gt;Animaux&lt;/span&gt;" style="text;html=1;align=center;verticalAlign=middle;whiteSpace=wrap;rounded=0;fontSize=20;" vertex="1" parent="1">
          <mxGeometry x="-20" y="1060" width="90" height="40" as="geometry" />
        </mxCell>
        <mxCell id="IJogBwM3K7kCsomVMxnr-40" value="" style="endArrow=classic;html=1;rounded=0;entryX=0;entryY=0.5;entryDx=0;entryDy=0;" edge="1" parent="1" target="IJogBwM3K7kCsomVMxnr-39">
          <mxGeometry width="50" height="50" relative="1" as="geometry">
            <mxPoint x="-130" y="1040" as="sourcePoint" />
            <mxPoint x="130" y="1160" as="targetPoint" />
            <Array as="points">
              <mxPoint x="-130" y="1080" />
            </Array>
          </mxGeometry>
        </mxCell>
        <mxCell id="IJogBwM3K7kCsomVMxnr-41" value="&lt;span&gt;Civil&lt;/span&gt;" style="text;html=1;align=center;verticalAlign=middle;whiteSpace=wrap;rounded=0;fontSize=20;" vertex="1" parent="1">
          <mxGeometry x="210" y="1050" width="50" height="40" as="geometry" />
        </mxCell>
        <mxCell id="IJogBwM3K7kCsomVMxnr-42" value="" style="endArrow=classic;html=1;rounded=0;entryX=0;entryY=0.5;entryDx=0;entryDy=0;" edge="1" parent="1" target="IJogBwM3K7kCsomVMxnr-41">
          <mxGeometry width="50" height="50" relative="1" as="geometry">
            <mxPoint x="90" y="1040" as="sourcePoint" />
            <mxPoint x="285" y="1080" as="targetPoint" />
            <Array as="points">
              <mxPoint x="90" y="1070" />
              <mxPoint x="200" y="1070" />
            </Array>
          </mxGeometry>
        </mxCell>
        <mxCell id="IJogBwM3K7kCsomVMxnr-43" value="" style="endArrow=classic;html=1;rounded=0;exitX=1;exitY=0.5;exitDx=0;exitDy=0;entryX=0;entryY=0.5;entryDx=0;entryDy=0;" edge="1" parent="1" source="IJogBwM3K7kCsomVMxnr-39" target="IJogBwM3K7kCsomVMxnr-44">
          <mxGeometry width="50" height="50" relative="1" as="geometry">
            <mxPoint x="230" y="1150" as="sourcePoint" />
            <mxPoint x="260" y="1200" as="targetPoint" />
            <Array as="points">
              <mxPoint x="70" y="1130" />
            </Array>
          </mxGeometry>
        </mxCell>
        <mxCell id="IJogBwM3K7kCsomVMxnr-44" value="&lt;span&gt;Chien&lt;/span&gt;" style="text;html=1;align=center;verticalAlign=middle;whiteSpace=wrap;rounded=0;fontSize=20;" vertex="1" parent="1">
          <mxGeometry x="120" y="1110" width="90" height="40" as="geometry" />
        </mxCell>
        <mxCell id="IJogBwM3K7kCsomVMxnr-45" value="&lt;span&gt;Cerf&lt;/span&gt;" style="text;html=1;align=center;verticalAlign=middle;whiteSpace=wrap;rounded=0;fontSize=20;" vertex="1" parent="1">
          <mxGeometry x="120" y="1150" width="60" height="40" as="geometry" />
        </mxCell>
        <mxCell id="IJogBwM3K7kCsomVMxnr-46" value="" style="endArrow=classic;html=1;rounded=0;exitX=1;exitY=0.5;exitDx=0;exitDy=0;entryX=0;entryY=0.5;entryDx=0;entryDy=0;" edge="1" parent="1" source="IJogBwM3K7kCsomVMxnr-39" target="IJogBwM3K7kCsomVMxnr-45">
          <mxGeometry width="50" height="50" relative="1" as="geometry">
            <mxPoint x="190" y="1230" as="sourcePoint" />
            <mxPoint x="265" y="1230" as="targetPoint" />
            <Array as="points">
              <mxPoint x="70" y="1170" />
            </Array>
          </mxGeometry>
        </mxCell>
        <mxCell id="IJogBwM3K7kCsomVMxnr-47" value="" style="endArrow=classic;html=1;rounded=0;exitX=1;exitY=0.5;exitDx=0;exitDy=0;entryX=0;entryY=0.5;entryDx=0;entryDy=0;" edge="1" parent="1" source="IJogBwM3K7kCsomVMxnr-34" target="IJogBwM3K7kCsomVMxnr-48">
          <mxGeometry width="50" height="50" relative="1" as="geometry">
            <mxPoint x="-110" y="960" as="sourcePoint" />
            <mxPoint x="280" y="670" as="targetPoint" />
          </mxGeometry>
        </mxCell>
        <mxCell id="IJogBwM3K7kCsomVMxnr-48" value="&lt;span style=&quot;font-size: 40px;&quot;&gt;Différent type de ennemi&lt;/span&gt;" style="text;html=1;align=center;verticalAlign=middle;whiteSpace=wrap;rounded=0;" vertex="1" parent="1">
          <mxGeometry x="-130" y="900" width="470" height="80" as="geometry" />
        </mxCell>
        <mxCell id="IJogBwM3K7kCsomVMxnr-49" value="" style="endArrow=classic;html=1;rounded=0;exitX=1;exitY=0.5;exitDx=0;exitDy=0;entryX=0;entryY=0.5;entryDx=0;entryDy=0;" edge="1" parent="1" source="IJogBwM3K7kCsomVMxnr-23" target="IJogBwM3K7kCsomVMxnr-52">
          <mxGeometry width="50" height="50" relative="1" as="geometry">
            <mxPoint x="390" y="650" as="sourcePoint" />
            <mxPoint x="940" y="640" as="targetPoint" />
          </mxGeometry>
        </mxCell>
        <mxCell id="IJogBwM3K7kCsomVMxnr-50" value="" style="endArrow=none;html=1;rounded=0;exitX=1;exitY=0.5;exitDx=0;exitDy=0;" edge="1" parent="1" source="IJogBwM3K7kCsomVMxnr-15">
          <mxGeometry width="50" height="50" relative="1" as="geometry">
            <mxPoint x="390" y="650" as="sourcePoint" />
            <mxPoint x="840" y="640" as="targetPoint" />
          </mxGeometry>
        </mxCell>
        <mxCell id="IJogBwM3K7kCsomVMxnr-51" value="" style="endArrow=none;html=1;rounded=0;exitX=1;exitY=0.5;exitDx=0;exitDy=0;" edge="1" parent="1" source="IJogBwM3K7kCsomVMxnr-48">
          <mxGeometry width="50" height="50" relative="1" as="geometry">
            <mxPoint x="390" y="650" as="sourcePoint" />
            <mxPoint x="840" y="640" as="targetPoint" />
          </mxGeometry>
        </mxCell>
        <mxCell id="IJogBwM3K7kCsomVMxnr-52" value="&lt;span style=&quot;font-size: 40px;&quot;&gt;Création d&#39;une map&lt;/span&gt;" style="text;html=1;align=center;verticalAlign=middle;whiteSpace=wrap;rounded=0;" vertex="1" parent="1">
          <mxGeometry x="890" y="600" width="390" height="80" as="geometry" />
        </mxCell>
        <mxCell id="IJogBwM3K7kCsomVMxnr-53" value="" style="endArrow=classic;html=1;rounded=0;exitX=1;exitY=0.5;exitDx=0;exitDy=0;entryX=0;entryY=0.5;entryDx=0;entryDy=0;" edge="1" parent="1" source="IJogBwM3K7kCsomVMxnr-52" target="IJogBwM3K7kCsomVMxnr-54">
          <mxGeometry width="50" height="50" relative="1" as="geometry">
            <mxPoint x="600" y="640" as="sourcePoint" />
            <mxPoint x="1350" y="640" as="targetPoint" />
          </mxGeometry>
        </mxCell>
        <mxCell id="IJogBwM3K7kCsomVMxnr-54" value="&lt;span style=&quot;font-size: 40px;&quot;&gt;Ajout d&#39;un menu Simple&lt;/span&gt;" style="text;html=1;align=center;verticalAlign=middle;whiteSpace=wrap;rounded=0;" vertex="1" parent="1">
          <mxGeometry x="1360" y="600" width="460" height="80" as="geometry" />
        </mxCell>
        <mxCell id="IJogBwM3K7kCsomVMxnr-55" value="&lt;span style=&quot;font-size: 40px;&quot;&gt;Ajout de contenue et continuation du projet&lt;/span&gt;" style="text;html=1;align=center;verticalAlign=middle;whiteSpace=wrap;rounded=0;" vertex="1" parent="1">
          <mxGeometry x="1880" y="600" width="460" height="80" as="geometry" />
        </mxCell>
        <mxCell id="IJogBwM3K7kCsomVMxnr-56" value="" style="endArrow=classic;html=1;rounded=0;entryX=0;entryY=0.5;entryDx=0;entryDy=0;exitX=1;exitY=0.5;exitDx=0;exitDy=0;" edge="1" parent="1" source="IJogBwM3K7kCsomVMxnr-54" target="IJogBwM3K7kCsomVMxnr-55">
          <mxGeometry width="50" height="50" relative="1" as="geometry">
            <mxPoint x="1810" y="710" as="sourcePoint" />
            <mxPoint x="1460" y="700" as="targetPoint" />
          </mxGeometry>
        </mxCell>
        <mxCell id="IJogBwM3K7kCsomVMxnr-57" value="&lt;span&gt;&lt;u&gt;&lt;b&gt;Leopold&lt;/b&gt;&lt;/u&gt;&lt;/span&gt;" style="text;html=1;align=center;verticalAlign=middle;whiteSpace=wrap;rounded=0;fontSize=30;" vertex="1" parent="1">
          <mxGeometry x="-820" y="170" width="140" height="80" as="geometry" />
        </mxCell>
        <mxCell id="IJogBwM3K7kCsomVMxnr-58" value="&lt;span&gt;&lt;u&gt;&lt;b&gt;Alexandre&lt;/b&gt;&lt;/u&gt;&lt;/span&gt;" style="text;html=1;align=center;verticalAlign=middle;whiteSpace=wrap;rounded=0;fontSize=30;" vertex="1" parent="1">
          <mxGeometry x="-810" y="540" width="140" height="80" as="geometry" />
        </mxCell>
        <mxCell id="IJogBwM3K7kCsomVMxnr-59" value="&lt;span&gt;&lt;b&gt;&lt;u&gt;Yassine&lt;/u&gt;&lt;/b&gt;&lt;/span&gt;" style="text;html=1;align=center;verticalAlign=middle;whiteSpace=wrap;rounded=0;fontSize=30;" vertex="1" parent="1">
          <mxGeometry x="-820" y="840" width="140" height="80" as="geometry" />
        </mxCell>
      </root>
    </mxGraphModel>
  </diagram>
</mxfile>
